# xmcd
#
# Track frame offsets: 
#        150
#        15810
#        28415
#        39155
#        64517
#        77352
#        87750
#        115167
#        126842
#        152140
#        161652
#        177822
#        196157
#        211945
#        225037
#        240252
#        254645
#        275455
#        290545
#
# Disc length: 4203 seconds
#
# Revision: 5
# Processed by: cddbd v1.5.2PL0 Copyright (c) Steve Scherf et al.
# Submitted via: ExactAudioCopyFreeDBPlugin 1.0
#
DISCID=e5106913
DTITLE=Various Artist - The Best of the Chicago Blues
DYEAR=1987
DGENRE=Blues
TTITLE0=The Jimmy Cotton Blues Quartet - Love Me or Leave Me
TTITLE1=Jimmy Cotton - Next Time You See Me
TTITLE2=Otis Spann's South Side Piano - Spann's Stomp
TTITLE3=Buddy Guy - One Room Country Shack
TTITLE4=J.B. Hutto and His Hawks - That's the Truth
TTITLE5=Homesick James and His Dusters - Somebody Been Talkin'
TTITLE6=Buddy Guy - I Had a Dream Last Night
TTITLE7=Junior Wells - When My Baby Left Me
TTITLE8=Buddy Guy - Sweet Little Angel
TTITLE9=The Jimmy Cotton Blues Quartet - Rocket 88
TTITLE10=Otis Spann - Mule Kicking in My Stall
TTITLE11=The Jimmy Cotton Blues Quartet - The Blues Keep Falling
TTITLE12=Big Walter Horton's Blues Harp Band with Memphis Charlie - Ro
TTITLE12=ckin' My Boogie
TTITLE13=Otis Spann's South Side Piano - S.P. Blues
TTITLE14=Junior Wells - Five Long Years
TTITLE15=Junior Wells - Checking on My Baby
TTITLE16=Otis Spann - Some Day
TTITLE17=Johnny Young's South Side Blues Band - Stealin' Back
TTITLE18=Junior Wells - Tobacco Road
EXTD=
EXTT0=
EXTT1=
EXTT2=
EXTT3=
EXTT4=
EXTT5=
EXTT6=
EXTT7=
EXTT8=
EXTT9=
EXTT10=
EXTT11=
EXTT12=
EXTT13=
EXTT14=
EXTT15=
EXTT16=
EXTT17=
EXTT18=
PLAYORDER=
